<?xml version="1.0" standalone="no"?>
<!DOCTYPE svg PUBLIC "-//W3C//DTD SVG 1.1//EN" "http://www.w3.org/Graphics/SVG/1.1/DTD/svg11.dtd" >
<!--
2013-9-30: Created.
-->
<svg>
<metadata>
Created by iconfont
</metadata>
<defs>

<font id="mesicon" horiz-adv-x="1024" >
  <font-face
    font-family="mesicon"
    font-weight="500"
    font-stretch="normal"
    units-per-em="1024"
    ascent="896"
    descent="-128"
  />
    <missing-glyph />
    
    <glyph glyph-name="index_icon_home" unicode="&#58970;" d="M896-101.12H128a32 32 0 0 0-32 32V497.92a33.28 33.28 0 0 0 10.88 24.32l384 328.96a32.64 32.64 0 0 0 42.24 0l384-328.96a33.28 33.28 0 0 0 10.88-24.32v-567.04a32 32 0 0 0-32-32z m-736 64h704V483.2L512 784.64 160 483.2zM760.96 78.72H263.04a32 32 0 0 0-32 32 32.64 32.64 0 0 0 32 32h497.92a32.64 32.64 0 0 0 32-32 32 32 0 0 0-32-32z"  horiz-adv-x="1024" />

    
    <glyph glyph-name="index_icon_setting" unicode="&#58971;" d="M948.48 477.44a81.92 81.92 0 0 1-57.6 67.84 91.52 91.52 0 0 0-64 117.76 87.68 87.68 0 0 1-29.44 88.32A434.56 434.56 0 0 1 670.72 832a85.76 85.76 0 0 1-98.56-16.64 77.44 77.44 0 0 0-116.48-6.4A100.48 100.48 0 0 1 320 817.28L241.28 768A101.76 101.76 0 0 1 192 656a85.12 85.12 0 0 0-64-109.44 91.52 91.52 0 0 1-59.52-67.84A440.96 440.96 0 0 1 64 320a92.16 92.16 0 0 1 64-83.2A90.24 90.24 0 0 0 192 128a81.28 81.28 0 0 1 0-16.64 78.72 78.72 0 0 1 24.32-69.76 394.24 394.24 0 0 1 149.12-92.8 76.16 76.16 0 0 1 73.6 14.08c69.12 51.2 77.44 51.2 149.12 0a70.4 70.4 0 0 1 76.8-10.88 540.8 540.8 0 0 1 136.32 83.2 80 80 0 0 1 30.72 78.08c-12.16 68.48 0 96.64 64 123.52a90.88 90.88 0 0 1 58.24 73.6 472.96 472.96 0 0 1 0 167.04zM832 290.56a149.76 149.76 0 0 1-80.64-165.76 45.44 45.44 0 0 0-24.32-53.12c-12.8-8.32-25.6-16-37.76-24.96a64 64 0 0 0-93.44 0 142.08 142.08 0 0 1-181.76-6.4 46.72 46.72 0 0 0-64-6.4c-16.64 9.6-33.28 19.2-49.28 29.44a60.16 60.16 0 0 0-33.92 72.96 161.28 161.28 0 0 1-97.28 167.68 45.44 45.44 0 0 0-33.28 44.8V418.56a67.84 67.84 0 0 0 44.16 69.12 144.64 144.64 0 0 1 85.76 158.08 64 64 0 0 0 39.04 75.52c13.44 7.04 26.24 14.72 39.04 23.04a53.12 53.12 0 0 0 74.88-4.48 144 144 0 0 1 192 4.48 40.96 40.96 0 0 0 56.96 5.12l39.04-21.76A76.16 76.16 0 0 0 748.16 640a137.6 137.6 0 0 1 76.8-147.84c55.68-24.32 64-64 57.6-112.64A77.44 77.44 0 0 0 832 290.56zM512 572.8a179.84 179.84 0 0 1 0-359.04 182.4 182.4 0 0 1 173.44 179.84A183.04 183.04 0 0 1 512 572.8z m0-281.6a101.76 101.76 0 1 0 97.28 101.12 104.32 104.32 0 0 0-103.04-101.12z"  horiz-adv-x="1024" />

    
    <glyph glyph-name="icon_down1" unicode="&#58956;" d="M512 115.712a48.128 48.128 0 0 0-35.84 15.36L40.96 565.248a51.2 51.2 0 0 0 0 71.68 51.2 51.2 0 0 0 72.704 0L512 239.616l398.336 397.312a51.2 51.2 0 0 0 72.704 0 51.2 51.2 0 0 0 0-71.68L547.84 131.072a48.128 48.128 0 0 0-35.84-15.36z"  horiz-adv-x="1024" />

    
    <glyph glyph-name="icon_up1" unicode="&#58967;" d="M946.176 115.712a50.176 50.176 0 0 0-35.84 15.36L512 528.384 113.664 131.072a51.2 51.2 0 0 0-72.704 0 51.2 51.2 0 0 0 0 71.68l435.2 434.176a49.152 49.152 0 0 0 71.68 0L983.04 202.752a51.2 51.2 0 0 0 0-71.68 52.224 52.224 0 0 0-36.864-15.36z"  horiz-adv-x="1024" />

    
    <glyph glyph-name="ic_empty" unicode="&#58945;" d="M1009.095111 289.450667l-153.372444 227.555555a79.644444 79.644444 0 0 1-65.536 35.043556H230.855111a80.213333 80.213333 0 0 1-65.536-35.043556l-152.007111-227.555555h-0.682667v-262.826667A69.632 69.632 0 0 1 81.92-42.666667h860.16a69.632 69.632 0 0 1 69.290667 69.290667v262.826667z m-364.885333 0a12.288 12.288 0 0 1-8.192-3.640889 11.377778 11.377778 0 0 1-3.754667-8.192v-10.467556a120.718222 120.718222 0 0 0-241.322667 0v10.467556a12.515556 12.515556 0 0 1-11.377777 11.377778H54.385778L194.332444 497.777778a45.511111 45.511111 0 0 0 36.522667 19.342222h560.014222a44.145778 44.145778 0 0 0 36.522667-19.342222L967.111111 288.768zM312.775111 629.077333a21.617778 21.617778 0 0 0-13.425778 5.233778l-77.482666 78.279111a19.456 19.456 0 0 0-5.688889 18.545778 19.569778 19.569778 0 0 0 14.108444 14.222222 19.456 19.456 0 0 0 18.659556-6.030222l77.482666-77.482667a18.318222 18.318222 0 0 0 5.916445-13.312 18.545778 18.545778 0 0 0-5.916445-13.425777 20.138667 20.138667 0 0 0-13.653333-6.030223zM710.428444 629.077333a21.276444 21.276444 0 0 0-13.312 5.233778 17.976889 17.976889 0 0 0 0 26.851556l77.368889 77.482666a19.569778 19.569778 0 0 0 27.648-27.648l-78.279111-75.889777a18.432 18.432 0 0 0-13.425778-6.030223zM510.862222 655.928889a21.617778 21.617778 0 0 0-13.425778 5.233778 18.204444 18.204444 0 0 0-5.12 13.425777V791.438222a18.318222 18.318222 0 0 0 9.671112 16.384 17.976889 17.976889 0 0 0 19.342222 0 19.342222 19.342222 0 0 0 9.671111-16.384V675.271111a21.617778 21.617778 0 0 0-5.233778-13.425778 24.007111 24.007111 0 0 0-14.904889-5.916444z"  horiz-adv-x="1024" />

    
    <glyph glyph-name="icon_time" unicode="&#58946;" d="M512 896a512 512 0 0 1-512-512 512 512 0 0 1 1024 0 512 512 0 0 1-512 512z m334.262857-667.062857a43.885714 43.885714 0 0 0-52.662857-21.211429L491.52 344.502857A42.422857 42.422857 0 0 0 468.114286 384V664.868571a39.497143 39.497143 0 0 0 78.994285 0v-259.657142l278.674286-125.805715a38.034286 38.034286 0 0 0 20.48-50.468571z"  horiz-adv-x="1024" />

    
    <glyph glyph-name="icon_lunbo_off" unicode="&#58947;" d="M874.666667 725.333333H222.293333L874.666667 72.96V725.333333zM192 42.666667h652.373333L192 695.04V42.666667zM42.666667 576h74.666666v-373.333333H42.666667zM949.333333 576H1024v-373.333333h-74.666667zM222.293333 725.333333L156.16 791.466667l-30.293333-30.293334L192 695.04V725.333333h30.293333zM874.666667 42.666667h-30.293334l66.133334-66.133334 30.293333 30.293334-66.133333 66.133333V42.666667zM874.666667 72.96L222.293333 725.333333H192v-30.293333L844.373333 42.666667h30.293334v30.293333z"  horiz-adv-x="1066" />

    
    <glyph glyph-name="index_icon_fold" unicode="&#58948;" d="M113.777778 696.888889h796.444444v-56.888889H113.777778zM113.777778 412.444444h796.444444v-56.888888H113.777778zM113.777778 128h796.444444v-56.888889H113.777778z"  horiz-adv-x="1024" />

    
    <glyph glyph-name="icon_xianbie" unicode="&#58949;" d="M597.333333 42.666667L337.066667 554.666667a184.32 184.32 0 0 1 34.986666 58.88H640l8.96-8.96c77.226667-78.08 142.506667-128 183.893333-128a217.173333 217.173333 0 0 1 167.68 103.68 30.72 30.72 0 0 1-8.106666 42.666666 32.853333 32.853333 0 0 1-44.8-6.826666c-42.666667-58.453333-78.08-78.08-116.053334-78.08-22.613333 0-67.413333 37.973333-128 98.56V712.106667c66.986667 74.666667 116.906667 113.066667 128 112.64a143.36 143.36 0 0 0 117.333334-64.426667 33.28 33.28 0 0 1 45.226666-3.413333 30.293333 30.293333 0 0 1 4.266667 42.666666 224.426667 224.426667 0 0 1-166.4 85.333334c-42.666667 0-97.28-42.666667-184.746667-142.506667l-7.253333-7.253333H372.906667A192 192 0 0 1 192 859.306667 189.44 189.44 0 0 1 0 673.28a191.146667 191.146667 0 0 1 226.986667-183.04L450.56 42.666667H0v-160.853334h1024V42.666667zM192 549.12a128 128 0 0 0-128 124.16 128 128 0 0 0 128 123.733333 128 128 0 0 0 128-123.733333 128 128 0 0 0-128-124.16z"  horiz-adv-x="1024" />

    
    <glyph glyph-name="index_icon_message_" unicode="&#58950;" d="M512 896a512 512 0 1 1 512-512A512 512 0 0 1 512 896z m73.728-757.76H438.272a24.576 24.576 0 0 0 0 49.152h147.456a24.576 24.576 0 0 0 0-49.152z m147.456 73.728H290.816a24.576 24.576 0 0 0 0 49.152h24.576V433.152a196.608 196.608 0 0 0 393.216 0V261.12h24.576a24.576 24.576 0 1 0 0-49.152zM512 580.608a147.84 147.84 0 0 1-147.456-147.456V261.12h294.4V433.152A147.84 147.84 0 0 1 512 580.608z"  horiz-adv-x="1024" />

    
    <glyph glyph-name="icon_lunbo_on" unicode="&#58951;" d="M170.666667 725.333333h682.666666v-682.666666H170.666667zM21.333333 576h74.666667v-373.333333H21.333333z m906.666667 0h74.666667v-373.333333h-74.666667z m0 0"  horiz-adv-x="1024" />

    
    <glyph glyph-name="icon_up" unicode="&#58952;" d="M946.176 115.712a50.176 50.176 0 0 0-35.84 15.36L512 528.384 113.664 131.072a51.2 51.2 0 0 0-72.704 0 51.2 51.2 0 0 0 0 71.68l435.2 434.176a49.152 49.152 0 0 0 71.68 0L983.04 202.752a51.2 51.2 0 0 0 0-71.68 52.224 52.224 0 0 0-36.864-15.36z"  horiz-adv-x="1024" />

    
    <glyph glyph-name="index_icon_tongji_" unicode="&#58953;" d="M512 896a512 512 0 1 1 512-512A512 512 0 0 1 512 896zM373.504 194.304a9.344 9.344 0 0 0-8.832-8.832h-79.36a9.344 9.344 0 0 0-8.832 8.832V459.008a8.448 8.448 0 0 0 8.832 7.68h79.36a8.448 8.448 0 0 0 8.832-7.68z m124.672 0a9.344 9.344 0 0 0-8.832-8.832H409.6a9.344 9.344 0 0 0-8.832 8.832v123.52a9.472 9.472 0 0 0 8.832 8.832h79.36a9.472 9.472 0 0 0 8.832-8.832z m124.672 0a9.344 9.344 0 0 0-8.832-8.832h-79.36a9.344 9.344 0 0 0-8.832 8.832V573.696a9.344 9.344 0 0 0 8.832 8.832H614.4a9.344 9.344 0 0 0 8.832-8.832z m124.672 0a8.448 8.448 0 0 0-7.68-8.832h-80.512a9.344 9.344 0 0 0-8.832 8.832V459.008a8.448 8.448 0 0 0 8.832 7.68h80.512a7.424 7.424 0 0 0 7.68-7.68z"  horiz-adv-x="1024" />

    
    <glyph glyph-name="switch_on" unicode="&#58954;" d="M1152 896H512a512 512 0 0 1 0-1024h640a512 512 0 0 1 0 1024z m0-960a448 448 0 1 0 448 448 448 448 0 0 0-448-448z"  horiz-adv-x="1664" />

    
    <glyph glyph-name="index_icon_jihexunjian_" unicode="&#58955;" d="M315.264 419.712h101.12v-89.088h-101.12zM512 896a512 512 0 1 1 512-512A512 512 0 0 1 512 896z m240.64-710.272a25.6 25.6 0 0 0-25.6-25.6H296.96a25.6 25.6 0 0 0-25.6 25.6v396.8a25.6 25.6 0 0 0 25.6 25.6h430.08a25.6 25.6 0 0 0 25.6-25.6zM460.288 286.848h101.632v-82.688h-101.632zM315.264 286.848h101.12v-82.688h-101.12zM460.288 419.712h101.632v-89.088h-101.632zM315.264 563.968h393.472v-100.224H315.264zM605.824 286.848h102.912v-82.688h-102.912zM605.824 419.712h102.912v-89.088h-102.912z"  horiz-adv-x="1024" />

    
    <glyph glyph-name="index_icon_kanban" unicode="&#58957;" d="M471.04 17.28v81.92H104.96a80.64 80.64 0 0 0-81.92 81.28V750.72A81.28 81.28 0 0 0 104.96 832h814.08a81.28 81.28 0 0 0 81.92-81.28v-570.24a81.28 81.28 0 0 0-81.92-81.28H552.96v-81.92h162.56V-64H308.48v81.28z m0 163.2h448V750.72H104.96v-570.24z m244.48 161.28z m-448 0A40.96 40.96 0 0 0 308.48 384h407.04a40.96 40.96 0 0 0 0-81.28H308.48a40.96 40.96 0 0 0-40.96 40.32z m285.44 243.84H308.48z m-285.44 0a40.96 40.96 0 0 0 40.96 40.96h244.48a40.32 40.32 0 0 0 41.6-39.68 39.68 39.68 0 0 0-39.04-41.6H308.48a40.32 40.32 0 0 0-40.96 40.32z"  horiz-adv-x="1024" />

    
    <glyph glyph-name="icon_pressed" unicode="&#58958;" d="M392.569833 692.266186m-203.733814 0a203.733814 203.733814 0 1 1 407.467628 0 203.733814 203.733814 0 1 1-407.467628 0ZM473.68016 227.957461a13.411944 13.411944 0 0 1 13.411944 14.050608v191.599199a60.034416 60.034416 0 1 0 119.430167 0v-191.599199a18.521256 18.521256 0 0 1 37.042512 0V345.471637a59.395752 59.395752 0 1 0 118.791503 0v-98.354256a19.15992 19.15992 0 1 1 37.681176 0v23.630568a59.395752 59.395752 0 1 0 118.791503 0v-349.349205a45.345144 45.345144 0 0 0-45.345144-45.983808H384.267201a171.161951 171.161951 0 0 0-161.581991 53.647776l-111.127535 252.272278a71.530367 71.530367 0 0 0 33.210528 94.522271 67.698383 67.698383 0 0 0 91.328951-32.571864L320.400802 55.518183V669.274282a69.614375 69.614375 0 1 0 138.590086 0v-427.266213a14.050608 14.050608 0 0 1 14.689272-14.050608z"  horiz-adv-x="1024" />

    
    <glyph glyph-name="icon_chejian" unicode="&#58959;" d="M1023.147377 353.305579a10.231474 10.231474 0 0 1-6.394671 11.084096c-42.631141 20.462948-81.85179 42.631141-122.777685 62.241466a11.936719 11.936719 0 0 0-7.247294 12.363031V793.685262c0 7.247294 0 8.95254-8.099917 8.95254h-97.625312c-7.247294 0-8.526228 0-7.673605 8.952539V889.179017c0 5.96836 0 6.820983-7.247294 6.820983h-52.436303c-6.820983 0-8.95254 0-8.95254-8.95254v-362.364696c-3.836803 0-5.96836 2.98418-8.099917 3.410492C520.099917 617.618651 341.049126 708.422981 165.408826 798.800999a28.136553 28.136553 0 0 1-12.789342 2.98418H8.526228c-6.394671 0-8.526228 0-8.526228-8.95254v-912.732722C0-128 0-128 7.673605-128h1007.800167c7.673605 0 7.673605 0 7.673605 8.099917v473.205662z m-825.765195-387.943381H121.07244c-5.96836 0-8.099917 0-8.099917 7.247294v355.970025c0 6.820983 2.131557 8.099917 8.099917 8.099917h75.457119c6.394671 0 7.673605 0 7.673605-8.099917v-356.396336c0.852623-5.115737-1.278934-6.820983-6.820982-6.820983zM341.049126-26.964197c0-5.96836 0-6.820983-7.247294-6.820982H255.786844c-5.96836 0-7.247294 2.131557-7.247294 7.247294v355.970025c0 6.820983 2.131557 8.099917 7.673606 8.099917h77.162364c5.115737 0 7.247294 0 7.247294-7.247294C341.049126 213.049126 341.049126 92.402998 341.049126-26.964197z m127.893422-7.673605H394.338052c-6.394671 0-8.526228 0-8.526229 8.099917V328.153206c0 6.394671 0 8.526228 7.673606 8.526228H468.942548c5.115737 0 6.394671 0 6.394671-6.394671v-358.954205c2.131557-4.263114 0.426311-5.96836-6.394671-5.96836z"  horiz-adv-x="1024" />

    
    <glyph glyph-name="index_icon_tongji" unicode="&#58960;" d="M464.64 263.68a19.84 19.84 0 0 0 18.56-18.56v-256a19.84 19.84 0 0 0-18.56-18.56h-166.4a19.84 19.84 0 0 0-18.56 18.56v256a19.84 19.84 0 0 0 18.56 18.56z m261.12 536.32a19.84 19.84 0 0 0 18.56-18.56v-794.88a19.84 19.84 0 0 0-18.56-18.56h-166.4a19.84 19.84 0 0 0-18.56 18.56V781.44a19.84 19.84 0 0 0 18.56 18.56z m263.68-242.56a16 16 0 0 0 16-16v-554.88a17.92 17.92 0 0 0-16-18.56h-168.96a19.84 19.84 0 0 0-18.56 18.56V541.44a17.92 17.92 0 0 0 18.56 16z m-785.92 0a17.92 17.92 0 0 0 18.56-16v-554.88a19.84 19.84 0 0 0-18.56-18.56H37.12a19.2 19.2 0 0 0-18.56 18.56V541.44a17.92 17.92 0 0 0 18.56 16z"  horiz-adv-x="1024" />

    
    <glyph glyph-name="index_kanban_" unicode="&#58961;" d="M307.2 547.84v-286.72h409.6V547.84z m102.4-61.44h122.88a20.48 20.48 0 0 0 1.408-40.96H409.6a20.48 20.48 0 0 0-20.48 20.48A20.608 20.608 0 0 0 409.6 486.4z m204.8-163.84H409.6a20.48 20.48 0 0 0-20.48 20.48 20.608 20.608 0 0 0 20.48 20.48h204.8a20.48 20.48 0 0 0 0-40.96zM512 896a512 512 0 1 1 512-512A512 512 0 0 1 512 896z m245.76-348.16v-286.72a40.832 40.832 0 0 0-40.96-40.96H532.48V179.2H614.4v-40.96H409.6V179.2h81.92v40.96H307.2a40.96 40.96 0 0 0-40.96 40.96V547.84A40.832 40.832 0 0 0 307.2 588.8h409.6a40.96 40.96 0 0 0 40.96-40.96z"  horiz-adv-x="1024" />

    
    <glyph glyph-name="icon_date" unicode="&#58962;" d="M292.693333 648.106667h12.8a29.866667 29.866667 0 0 1 31.573334 31.573333V832.426667a29.866667 29.866667 0 0 1-31.573334 31.573333h-12.8a29.866667 29.866667 0 0 1-32-31.573333v-159.146667a29.013333 29.013333 0 0 1 32-25.173333zM706.133333 648.106667h12.373334a29.866667 29.866667 0 0 1 32 31.573333V832.426667a29.866667 29.866667 0 0 1-32 31.573333h-12.373334a29.866667 29.866667 0 0 1-32-31.573333v-159.146667c0-12.8 19.2-25.173333 32-25.173333zM381.44 788.053333h256v-57.6h-256zM884.053333 788.053333h-82.773333v-57.6h82.773333a70.4 70.4 0 0 0 69.973334-69.973333V597.333333h-896V660.48A70.4 70.4 0 0 0 128 730.453333h81.92V788.053333H133.546667A134.4 134.4 0 0 1 0 654.506667v-616.96a134.4 134.4 0 0 1 133.546667-133.546667h756.906666A134.4 134.4 0 0 1 1024 37.546667V654.506667a144.64 144.64 0 0 1-139.946667 133.546666z m-356.266666-756.906666c-31.573333 0-37.973333 18.773333-37.973334 50.773333v209.92H413.44c-12.8 0-25.6 6.4-25.6 31.573333s6.4 25.6 38.4 32l18.773333 6.4c64 12.8 44.8 76.373333 95.573334 76.373334 12.8 0 25.6-6.4 25.6-38.4v-317.866667c0-25.6-6.4-50.773333-38.4-50.773333z"  horiz-adv-x="1024" />

    
    <glyph glyph-name="index_icon_touxiang" unicode="&#58963;" d="M512 384m-512 0a512 512 0 1 1 1024 0 512 512 0 1 1-1024 0ZM517.12 592.896a114.688 114.688 0 0 0 117.76-111.274667 106.154667 106.154667 0 0 0-43.690667-85.674666 130.389333 130.389333 0 0 0-157.354666 6.485333 102.4 102.4 0 0 0-34.133334 79.189333 114.005333 114.005333 0 0 0 117.418667 111.274667zM618.496 175.104h-212.650667c-80.213333 1.706667-81.578667 52.906667-81.578666 84.309333 0 37.546667 68.266667 92.501333 95.573333 111.274667a211.968 211.968 0 0 1 92.16-29.354667 196.608 196.608 0 0 1 92.16 29.354667c28.330667-18.773333 95.914667-72.704 96.256-111.274667s0-82.602667-81.92-84.309333z"  horiz-adv-x="1024" />

    
    <glyph glyph-name="switch_off" unicode="&#58964;" d="M1152 896H512a512 512 0 0 1 0-1024h640a512 512 0 0 1 0 1024zM512-64a448 448 0 1 0 448 448 448 448 0 0 0-448-448z"  horiz-adv-x="1664" />

    
    <glyph glyph-name="icon_down" unicode="&#58965;" d="M512 115.712a48.128 48.128 0 0 0-35.84 15.36L40.96 565.248a51.2 51.2 0 0 0 0 71.68 51.2 51.2 0 0 0 72.704 0L512 239.616l398.336 397.312a51.2 51.2 0 0 0 72.704 0 51.2 51.2 0 0 0 0-71.68L547.84 131.072a48.128 48.128 0 0 0-35.84-15.36z"  horiz-adv-x="1024" />

    
    <glyph glyph-name="icon_exit" unicode="&#58966;" d="M917.504 409.088l-187.392 165.376a44.032 44.032 0 0 1-56.832 0 33.28 33.28 0 0 1 0-51.2l118.784-104.96h-348.16a35.84 35.84 0 1 1 0-70.656h348.16l-118.784-104.96a33.28 33.28 0 0 1 0-51.2 45.568 45.568 0 0 1 28.672-10.24 43.52 43.52 0 0 1 28.16 10.24l187.392 165.376a32.256 32.256 0 0 1 0 52.224zM570.368 96.256h-404.48V671.744H563.2A35.328 35.328 0 0 1 563.2 742.4H130.048a35.328 35.328 0 0 1-35.328-35.328v-646.144a35.328 35.328 0 0 1 35.328-35.328h440.32a35.328 35.328 0 0 1 0 70.656z"  horiz-adv-x="1024" />

    
    <glyph glyph-name="index_icon_jihexunjian" unicode="&#58968;" d="M896 736v-704H128v704h768m64 64H64v-832h896v832zM339.84 526.08h64v-512h-64zM616.96 526.08h64v-512h-64zM104.96 526.08H928v-64H104.96zM96 272.64h823.04v-64H96z"  horiz-adv-x="1024" />

    
    <glyph glyph-name="index_icon_message" unicode="&#58969;" d="M915.2 160h-44.8V473.6a358.4 358.4 0 0 1-716.8 0v-313.6h-44.8a44.8 44.8 0 0 1 0-89.6h806.4a44.8 44.8 0 0 1 0 89.6z m-672 0V473.6a268.8 268.8 0 0 0 537.6 0v-313.6z m403.2-134.4H377.6a44.8 44.8 0 0 1 0-89.6h268.8a44.8 44.8 0 0 1 0 89.6z"  horiz-adv-x="1024" />

    
    <glyph glyph-name="logo_wanlida" unicode="&#58913;" d="M12.358621 863.337931h1122.868965v-125.351724H528.772414l-32.662069-121.82069h603.806896V128s-23.834483-238.344828-172.137931-246.289655c-148.303448-7.944828-349.572414-3.531034-349.572413-3.531035l1.765517 117.406897 218.041379 3.531034s70.62069 27.365517 74.151724 97.986207c3.531034 70.62069 11.475862 391.062069-7.944827 399.006897H435.2L247.172414-114.758621l-223.337931 3.531035 278.068965 833.324138H16.772414l-4.413793 141.241379z m1941.186207 11.475862s-289.544828-95.337931-620.579311-76.8h-23.834483v-97.986207H1544.827586v-75.917241h-233.048276v-113.875862H1527.172414V472.275862s-61.793103-193.324138-220.689655-301.903448V13.241379s135.062069 26.482759 233.048275 158.896552v-286.013793h188.027587V281.6l211.862069-113.875862v150.068965l-203.917242 103.282759v85.627586h211.862069V624.993103H1739.034483l3.531034 63.558621s202.151724 22.068966 207.448276 45.02069l3.531035 141.241379z m60.027586-170.372414h164.193103v-587.034482h-164.193103V704.441379z m400.772414 143.006897l-166.84138 1.765517v-768.882759c-3.531034-83.862069-38.841379-90.041379-38.841379-90.041379h-193.324138v-112.993103s169.489655-1.765517 283.365517 0c113.875862 1.765517 115.641379 160.662069 115.64138 160.662069V847.448276z m350.455172 9.710345l97.986207-196.855173-183.613793 0.882759-99.751724 194.206896 185.37931 1.765518z m-157.131034-263.062069h272.772413v-486.4s19.42069-107.696552 162.427587-112.993104h658.537931v-103.282758h-687.668966s-63.558621-29.131034-179.2 73.268965c0 0-83.862069-83.862069-105.931034-83.862069h-122.703449v107.696552l39.724138 10.593103s46.786207 1.765517 49.434483 52.965518V478.455172h-88.275862l0.882759 115.64138zM3222.068966 854.510345v-141.241379h-275.42069V578.206897h270.124138c-37.075862-265.710345-246.289655-378.703448-267.475862-393.710345v-98.868966s210.096552-18.537931 401.655172 298.372414c0 0 155.365517-280.717241 322.206897-293.075862l1.765517 111.227586s-187.144828 97.986207-189.793104 300.137931h-109.462068l12.35862 69.737931h283.365517V709.737931h-275.420689V854.510345H3222.068966z"  horiz-adv-x="3707" />

    


  </font>
</defs>
</svg>
